<?xml version="1.0" standalone="no"?>
<!DOCTYPE svg PUBLIC "-//W3C//DTD SVG 1.1//EN" "http://www.w3.org/Graphics/SVG/1.1/DTD/svg11.dtd" >
<svg xmlns="http://www.w3.org/2000/svg" xmlns:xlink="http://www.w3.org/1999/xlink" version="1.1">
<metadata>
Created by FontForge 20200427 at Mon Aug 18 19:12:42 2014
 By www
By PintassilgoPrints, 2013. All rights reserved. 
</metadata>
<defs>
<font id="TremendousLooseW01-Regular" horiz-adv-x="404" >
  <font-face 
    font-family="TremendousLooseW01-Regular"
    font-weight="500"
    font-stretch="normal"
    units-per-em="1024"
    panose-1="2 0 5 3 0 0 0 0 0 0"
    ascent="819"
    descent="-205"
    x-height="646"
    cap-height="647"
    bbox="-42 -189 773 810"
    underline-thickness="51"
    underline-position="-178"
    unicode-range="U+0020-2122"
  />
<missing-glyph horiz-adv-x="374" 
d="M34 0v682h272v-682h-272zM68 34h204v614h-204v-614z" />
    <glyph glyph-name=".notdef" horiz-adv-x="374" 
d="M34 0v682h272v-682h-272zM68 34h204v614h-204v-614z" />
    <glyph glyph-name="glyph1" horiz-adv-x="0" 
 />
    <glyph glyph-name="glyph1" horiz-adv-x="0" 
 />
    <glyph glyph-name="nonmarkingreturn" horiz-adv-x="341" 
 />
    <glyph glyph-name="space" unicode=" " horiz-adv-x="227" 
 />
    <glyph glyph-name="exclam" unicode="!" horiz-adv-x="224" 
d="M200 -15q0 -29 -21 -50.5t-50 -21.5t-49.5 21.5t-20.5 50.5t20.5 49t49.5 20t50 -20t21 -49zM196 84l-133 1l-27 589q26 0 80 1t80 1v-592z" />
    <glyph glyph-name="quotedbl" unicode="&#x22;" horiz-adv-x="320" 
d="M289 457h-101l-8 199h117zM132 457h-100l-8 199h116z" />
    <glyph glyph-name="numbersign" unicode="#" horiz-adv-x="716" 
d="M694 489v-110h-98l-27 -106h125v-110h-151l-40 -163h-157l40 163h-125l-40 -163h-159l41 163h-77v110h104l27 106h-134v110h160l41 167h159l-42 -167h125l41 167h157l-41 -167h71zM438 379h-124l-26 -106h125z" />
    <glyph glyph-name="dollar" unicode="$" horiz-adv-x="410" 
d="M29 160v102q72 -4 138 -4h10v-70v-18h46l1 101q-15 3 -45 7.5t-49 7.5t-42 9.5t-37 15.5q-27 16 -27 56q0 161 3 179q8 46 39 61t95 17v47h87v-46q49 0 72.5 -3.5t40 -18t20.5 -38t4 -69.5v-84q-21 0 -79 2.5t-68 2.5l1 81l-56 2l2 -86q30 -5 151 -34q18 -4 32.5 -22.5
t18.5 -40.5q1 -4 1 -80q0 -103 -1 -109q-6 -56 -38 -76.5t-101 -23.5v-39h-87v38q-47 0 -73 6t-39.5 23.5t-16.5 39t-3 64.5z" />
    <glyph glyph-name="percent" unicode="%" horiz-adv-x="542" 
d="M474 -5q-1 0 -13 -0.5t-27.5 -0.5h-25.5h-30q-26 3 -36.5 19.5t-12.5 48.5q0 1 -0.5 11.5t-0.5 32v48.5v78q2 46 99 46q60 0 76.5 -13.5t16.5 -54.5q0 -6 -0.5 -21t-0.5 -24v-69q0 -43 -1 -49q-6 -48 -44 -52zM397 98h54l-1 70h-54zM169 369l-27 -1h-40h-29q-46 5 -49 68
v91v79q1 26 22.5 35.5t62.5 9.5q63 0 83 -16t21 -74v-91q0 -43 -1 -49q-6 -48 -43 -52zM93 468h46l-1 80h-46zM25 0l367 649h117l-353 -649h-131z" />
    <glyph glyph-name="ampersand" unicode="&#x26;" horiz-adv-x="498" 
d="M429 278q1 -58 1 -124q0 -44 -1 -66t-9 -44.5t-18.5 -30.5t-37 -15.5t-56.5 -8.5t-85 -1q-117 0 -158 22.5t-41 95.5q0 21 0.5 77t0.5 81q1 15 7.5 25.5t14 15.5t22.5 12q12 6 12 8t-7 4t-18 11t-16 18q-9 15 -10 99v91v1q0 69 36.5 87.5t132.5 18.5q43 0 66.5 -1
t47.5 -2t34 -6t19.5 -10t12 -16t4 -22t1.5 -32q0 -12 -1 -48t-1 -62h-150l-1 71h-57v-7q0 -22 1.5 -66t1.5 -65h295l-1 -111h-42zM293 151l1 127l-116 1v-127z" />
    <glyph glyph-name="quotesingle" unicode="'" horiz-adv-x="158" 
d="M127 457h-95l-8 200h111z" />
    <glyph glyph-name="parenleft" unicode="(" horiz-adv-x="313" 
d="M287 594q-35 0 -57.5 -17t-33 -50.5t-13.5 -65.5t-3 -79v-73q0 -59 3 -100t13 -84t33 -65.5t58 -22.5v-118q-70 0 -122.5 33t-82.5 90t-44.5 124t-14.5 144q0 74 12.5 139.5t40.5 126.5t82 97t129 36v-115z" />
    <glyph glyph-name="parenright" unicode=")" horiz-adv-x="312" 
d="M22 594v115q75 0 129 -36t82 -97t40.5 -126.5t12.5 -139.5q0 -77 -14.5 -144t-44.5 -124t-82.5 -90t-122.5 -33v118q35 0 57.5 22.5t32.5 66t13 83.5t3 100v75q0 47 -3 78.5t-13 64.5t-32.5 50t-57.5 17z" />
    <glyph glyph-name="asterisk" unicode="*" horiz-adv-x="270" 
d="M47 485l46 52l-71 20l18 48l71 -19l-2 62h45l-2 -62l71 19l21 -49l-74 -19l45 -50l-48 -30l-36 51l-35 -51z" />
    <glyph glyph-name="plus" unicode="+" horiz-adv-x="319" 
d="M105 379v78h111v-78h81v-112h-81v-78h-111v78h-82v111z" />
    <glyph glyph-name="comma" unicode="," horiz-adv-x="189" 
d="M55 -105l14 105l-40 1l-2 128h136v-129l-36 -105h-72z" />
    <glyph glyph-name="hyphen" unicode="-" horiz-adv-x="261" 
d="M234 385v-130h-207v130h207z" />
    <glyph glyph-name="period" unicode="." horiz-adv-x="180" 
d="M154 1h-127v121h126q0 -12 0.5 -35t0.5 -35v-51z" />
    <glyph glyph-name="slash" unicode="/" horiz-adv-x="306" 
d="M18 0l122 656h148l-115 -656h-155z" />
    <glyph glyph-name="zero" unicode="0" horiz-adv-x="393" 
d="M108 -10q-70 7 -81 104q-2 24 -2 194q0 139 1 198q1 44 2.5 68.5t8 48t16 34t29 18.5t44.5 10.5t65 2.5h11q83 0 124 -18.5t44 -71.5v-158q0 -280 -1 -295q-2 -64 -22 -96.5t-69 -38.5q-4 -1 -60 -1q-102 0 -110 1zM233 146v5q0 5 0.5 14t1 21t0.5 28t0.5 33.5t1 38
t0.5 40.5l1 178l-33 1q-4 0 -11 0.5t-10 0.5q-13 0 -14 -1t-1 -180l-1 -180h33h10q22 0 22 1z" />
    <glyph glyph-name="one" unicode="1" horiz-adv-x="281" 
d="M93 475h-76v168l234 2q4 -28 4 -504v-139q-27 0 -80.5 -0.5t-79.5 -0.5v171q0 246 -2 303z" />
    <glyph glyph-name="two" unicode="2" horiz-adv-x="412" 
d="M385 174l-2 -174h-356q-4 36 -4 75q0 68 14 118.5t37.5 81t48 52.5t52 46t41.5 47q12 16 12 55v39h-53l1 -85h-78h-69v112q0 35 11 59.5t25.5 37t39.5 19.5t42 8t44 1q115 0 157.5 -25.5t42.5 -105.5v-22q0 -65 -21.5 -118.5t-52.5 -86.5t-62 -57.5t-52.5 -43.5
t-21.5 -32v-1h204z" />
    <glyph glyph-name="three" unicode="3" horiz-adv-x="391" 
d="M158 225l1 -61l55 1l-1 114l-94 -1l-1 111h97q0 21 1 65t1 66v7h-61v-87h-131q0 22 -0.5 55t-0.5 45q0 75 29 95t140 20h4q93 0 128.5 -18.5t35.5 -87.5v-1v-91q-1 -84 -10 -99q-5 -9 -16 -18t-18 -11q-6 -1 -6 -4q0 -2 12 -8q16 -8 23 -12.5t14 -15t8 -25.5
q0 -25 0.5 -81t0.5 -77q0 -75 -29.5 -96.5t-133.5 -21.5q-115 0 -147 25t-32 115v26v71h131z" />
    <glyph glyph-name="four" unicode="4" horiz-adv-x="412" 
d="M231 226l-217 -2l2 114l121 307l236 1v-296h26l1 -124h-27v-224q-27 0 -70 -0.5t-70 -0.5zM229 529l-74 -179h76z" />
    <glyph glyph-name="five" unicode="5" horiz-adv-x="406" 
d="M24 144v78l139 1h9v-97h53v176h-53v-30l-148 1l20 372q57 0 168 1t168 1h1v-152h-206l-5 -68h41q89 0 122 -10q50 -15 50 -64q0 -1 0.5 -21t0.5 -50v-55q0 -112 -1 -119q-3 -35 -14 -57.5t-25.5 -35.5t-45.5 -19t-58.5 -7.5t-79.5 -1.5q-48 0 -75 6.5t-40.5 27t-17 46
t-3.5 77.5z" />
    <glyph glyph-name="six" unicode="6" horiz-adv-x="377" 
d="M161 391q36 6 66 6h3q57 -1 80.5 -10.5t33.5 -37.5t10 -93v-108q0 -46 -4.5 -71.5t-20.5 -48t-48.5 -31.5t-86.5 -9q-38 0 -60.5 1.5t-46 7.5t-35.5 17t-19.5 31t-7.5 49v1v92v303v17q0 42 3 63t17 44.5t47 33t88 9.5q50 0 60 -1h8.5t7 -0.5t3.5 -0.5q52 -6 72 -34.5
t20 -101.5q0 -2 0.5 -12t0.5 -28v-40l-137 -2q0 21 -1 45l-1 24h-52v-115zM170 267q0 -21 -0.5 -71t-0.5 -72v-8l57 1v156z" />
    <glyph glyph-name="seven" unicode="7" horiz-adv-x="364" 
d="M164 470l-141 5v169l321 -3l-2 -159l-145 -480q-37 0 -87.5 -0.5t-87.5 -0.5q91 281 142 469z" />
    <glyph glyph-name="eight" unicode="8" horiz-adv-x="390" 
d="M213 388q0 22 0.5 66t0.5 66v7h-55v-139h54zM20 260q1 22 14 34t37 23q11 5 11 8t-6 4q-7 2 -18 11t-16 18q-9 15 -10 97q0 22 -1 54.5t-1 43.5q0 68 26 85t134 17h7q92 0 126.5 -18.5t34.5 -87.5v-92q-1 -84 -10 -99q-5 -9 -16 -18t-18 -11q-6 -1 -6 -4t11 -8
q16 -8 23.5 -12.5t14.5 -15t8 -25.5q0 -25 0.5 -81t0.5 -77q0 -75 -29.5 -96.5t-132.5 -21.5q-118 0 -151 26.5t-33 120.5v125zM162 275v-111l50 1v114z" />
    <glyph glyph-name="nine" unicode="9" horiz-adv-x="377" 
d="M218 283q-49 -7 -67 -7h-3q-81 2 -102.5 25.5t-21.5 116.5q0 21 -0.5 56t-0.5 48q0 55 9.5 81t43.5 40.5t105 14.5q95 0 133.5 -19t38.5 -88v-445q0 -40 -4.5 -61t-22 -35t-47 -18t-85.5 -4q-46 0 -56 1q-6 0 -12 1h-7q-49 6 -69.5 38.5t-22.5 96.5v96l134 2v-84h57v144z
M204 407q0 21 0.5 57t0.5 58v8l-53 -1l-1 -129z" />
    <glyph glyph-name="colon" unicode=":" horiz-adv-x="162" 
d="M136 350h-109v106h109v-106zM136 134h-109v106h109v-106z" />
    <glyph glyph-name="semicolon" unicode=";" horiz-adv-x="164" 
d="M138 191h-110v105h109zM55 -105l14 105l-40 1l-2 104h110l1 -105l-25 -105h-58z" />
    <glyph glyph-name="less" unicode="&#x3c;" horiz-adv-x="521" 
d="M33 229v171l455 202v-147l-313 -141l313 -139v-147z" />
    <glyph glyph-name="less" unicode="&#x2039;" horiz-adv-x="521" 
d="M33 229v171l455 202v-147l-313 -141l313 -139v-147z" />
    <glyph glyph-name="equal" unicode="=" horiz-adv-x="296" 
d="M270 273l-1 -111h-242v111h243zM270 416l-1 -112h-242v112h243z" />
    <glyph glyph-name="greater" unicode="&#x3e;" horiz-adv-x="521" 
d="M488 229l-455 -201v147l313 139l-313 141v147l455 -202v-171z" />
    <glyph glyph-name="greater" unicode="&#x203a;" horiz-adv-x="521" 
d="M488 229l-455 -201v147l313 139l-313 141v147l455 -202v-171z" />
    <glyph glyph-name="question" unicode="?" horiz-adv-x="433" 
d="M245 86h-134q0 28 -1.5 98t-1.5 79v5q4 26 12.5 44t18 28.5t30 19t35 12.5t46.5 11l1 154l-73 -2v-107q-10 0 -65.5 -1t-76.5 -1v104q0 39 1.5 62.5t9.5 42t16.5 27t31 14t43.5 6.5t62 1q38 0 55.5 -0.5t45 -3t40.5 -8t28 -16t22.5 -26.5t11.5 -39q5 -37 5 -243
q0 -45 -29 -65l-16.5 -11t-18 -9.5t-15.5 -7t-19 -6t-17.5 -4.5t-21.5 -5t-22 -5zM246 -15q0 -29 -21 -50t-50 -21t-49.5 21t-20.5 50t20.5 49t49.5 20t50 -20t21 -49z" />
    <glyph glyph-name="at" unicode="@" horiz-adv-x="775" 
d="M753 356q0 -94 -48 -152.5t-107 -58.5q-73 0 -112 54q-23 -38 -95 -38q-85 0 -125.5 19t-40.5 71q0 12 1 19l17 138q5 37 34.5 52.5t94.5 15.5h4q41 0 67 -14l1 14l100 -10l-7 -70q0 -6 -6.5 -55.5t-6.5 -62.5v-4q2 -14 12 -23t22 -9q20 0 35.5 22.5t15.5 65.5v84
q0 40 -17 60t-66 30t-147 10h-2q-62 0 -101.5 -3.5t-62 -8t-32 -16.5t-11.5 -21.5t-2 -31.5v-206q0 -43 13.5 -64t68 -34t165.5 -13q263 0 304 6l-8 -132q-47 -5 -292 -5q-80 0 -141 6.5t-103 16.5t-70.5 29.5t-44 37.5t-23.5 49t-10 55.5t-2 65.5v218q0 35 6 60.5t27 53
t58 44.5t104.5 28t161.5 11h2q59 0 107 -3.5t84.5 -9t64 -16t46 -20.5t31.5 -26.5t20 -30t10.5 -35.5t4.5 -38.5t1 -42.5v-82zM391 252l18 145h-34l-20 -146q3 -1 7 -1t11 0.5t13 1.5h5z" />
    <glyph glyph-name="A" unicode="A" horiz-adv-x="430" 
d="M266 3l-13 140l-89 2q-8 -97 -9 -142l-144 1l63 642l279 -1l76 -642h-163zM181 316l28 1l30 2l-20 200l-18 2z" />
    <glyph glyph-name="B" unicode="B" horiz-adv-x="414" 
d="M391 106q0 -71 -34 -93.5t-119 -24.5q-13 0 -45 -0.5t-41 -0.5q-20 0 -58.5 0.5t-56.5 0.5h-4q-2 3 -3 133q-3 275 -3 533l224 1q85 0 109 -17t24 -89v-1v-91q-1 -84 -10 -99q-5 -9 -16 -18t-18 -11q-6 -1 -6 -4t11 -8q16 -8 23 -12.5t14 -15t8 -25.5q0 -25 0.5 -81
t0.5 -77zM229 279l-62 -1l1 -127l61 1v127zM168 527l-2 -130h65v130h-63z" />
    <glyph glyph-name="C" unicode="C" horiz-adv-x="408" 
d="M241 271l143 1q0 -155 -2 -177q-11 -97 -80 -104q-16 -2 -112 -2q-69 0 -73 1q-49 6 -69 39t-22 97q-1 15 -1 291q0 36 0.5 73.5t0.5 60v23.5q2 36 28 57t62.5 27.5t91.5 6.5h10q40 0 65 -2t45 -10.5t29.5 -18.5t16 -33.5t8 -48t2.5 -68.5v-73l-143 -5l-2 96h-67l1 -175
q0 -43 0.5 -88.5t0.5 -68.5l1 -24q0 -1 15 -1q11 0 31 1h20v125z" />
    <glyph glyph-name="D" unicode="D" horiz-adv-x="421" 
d="M27 -10v29v632l243 2q90 0 113 -62q10 -29 12 -338v-77q0 -99 -19.5 -136.5t-90.5 -44.5q-25 -2 -141 -3zM245 173l-4 322l-71 -1l6 -322z" />
    <glyph glyph-name="E" unicode="E" horiz-adv-x="358" 
d="M32 6q0 304 -5 652q21 0 144 -1t164 -1q1 -7 1 -78v-73q-20 0 -67.5 1.5t-66.5 1.5h-33v-33q0 -43 2 -45l135 -5q1 -50 1 -152h-120v-73l142 -3l1 -196l-298 1v4z" />
    <glyph glyph-name="F" unicode="F" horiz-adv-x="344" 
d="M280 399v-157l-92 1v-243l-161 2v647q2 2 179 2h117l1 -163h-163l-3 -88z" />
    <glyph glyph-name="G" unicode="G" horiz-adv-x="407" 
d="M230 414v97q-8 0 -33.5 0.5t-34.5 0.5l2 -364l85 -3v79l-46 2v130l177 -2q0 -35 1 -110t1 -109q0 -86 -27 -118t-108 -32h-17q-115 0 -157.5 19t-46.5 79q-2 36 -2 145q0 233 1 276q1 54 10 84.5t36 46.5t61.5 20t101.5 4q86 0 116.5 -24t30.5 -92v-128z" />
    <glyph glyph-name="H" unicode="H" horiz-adv-x="429" 
d="M248 426v228h154v-642l-154 2v225h-66v-240l-155 2v644h155v-218h3z" />
    <glyph glyph-name="I" unicode="I" horiz-adv-x="215" 
d="M188 1l-161 1v643q27 0 81 1t80 1q0 -16 -0.5 -186.5t-0.5 -269.5q0 -158 1 -190z" />
    <glyph glyph-name="J" unicode="J" 
d="M381 649q2 -10 2 -418q0 -118 -2 -132q-6 -71 -41.5 -89.5t-121.5 -18.5h-58q-48 0 -75 6.5t-40.5 27t-17 46t-3.5 77.5v112l148 -5v-96h46l1 490h162z" />
    <glyph glyph-name="K" unicode="K" horiz-adv-x="423" 
d="M238 647h157l-1 -190v-10q0 -64 -12 -85t-55 -43q-8 -3 -8 -5q0 -1 10 -3q15 -3 37 -12.5t26 -18.5q5 -12 6 -27.5t1 -104.5v-104q0 -53 -1 -54q-113 -3 -147 -3h-10q-1 4 -2 116t-3 115l-58 6l-3 -224l-146 -4v118q0 92 -1 153t-1 182v191q3 0 57.5 1t88.5 1v-24l2 -231
l64 14v55q0 190 -1 191z" />
    <glyph glyph-name="L" unicode="L" horiz-adv-x="367" 
d="M194 178h154v-175q-8 -2 -247 -2l-69 1q-5 35 -5 504v139q27 0 80 0.5t79 0.5q0 -215 8 -468z" />
    <glyph glyph-name="M" unicode="M" horiz-adv-x="573" 
d="M548 11q-4 -2 -49 -2l-111 1l11 246l-77 -241h-61l-72 267l1 -263v-18q-18 -2 -121 -2q-40 0 -42 1v651l207 3l66 -267l69 251h106h73v-627z" />
    <glyph glyph-name="N" unicode="N" horiz-adv-x="477" 
d="M188 3l-158 3v109l-3 540l75 -1q102 0 107 -3l73 -218l1 216h162q1 -72 2 -217.5t2 -217.5v-60.5t0.5 -53.5t1 -41.5t0.5 -28.5v-11l-125 -3h-12q-18 0 -24 3.5t-8 15.5l-94 256q-1 0 -1 -61q0 -41 0.5 -129t0.5 -98z" />
    <glyph glyph-name="O" unicode="O" horiz-adv-x="415" 
d="M252 174l-4 326h-72v-327zM391 103q0 -70 -44.5 -94t-141.5 -24q-27 0 -48.5 1.5t-39 6.5t-30.5 9.5t-23 16t-16.5 19.5t-11 26.5t-6.5 31t-3.5 39.5t-1.5 44.5v53.5v11v277q0 79 37 111t139 32h1q116 0 152.5 -37t36.5 -140v-7v-144v-233z" />
    <glyph glyph-name="P" unicode="P" horiz-adv-x="397" 
d="M184 236v-244q-12 -1 -58 -1h-99v523v133h256q51 0 73.5 -27t22.5 -93v-118q0 -57 -8 -89.5t-33 -51t-58 -24.5t-96 -8zM178 387q13 0 27 0.5t27 0.5l-3 138h-52q1 -46 1 -139z" />
    <glyph glyph-name="Q" unicode="Q" horiz-adv-x="405" 
d="M162 151l75 -3v350l-72 1zM283 -1v-45h-164v44q-93 16 -93 114q0 202 -1 384v7q0 54 4.5 81t22.5 47.5t50.5 26t92.5 5.5h3q108 0 145.5 -23.5t37.5 -98.5v-290v-9q0 -46 -0.5 -71.5t-4 -56t-9.5 -46.5t-17 -32t-27.5 -24t-39.5 -13z" />
    <glyph glyph-name="R" unicode="R" horiz-adv-x="432" 
d="M408 531l-1 -76q-1 -78 -9 -104t-49 -46q-7 -3 -7 -5t9 -3q13 -2 26.5 -12t18.5 -20q5 -12 6 -29t1 -107l-1 -125q-115 -3 -147 -3h-10q-1 4 -2 105t-3 104h-63l-3 -211l-147 -4v654q2 0 71.5 1t115.5 1h9q28 0 42.5 -0.5t36.5 -1.5t32.5 -4.5t25.5 -9t21.5 -14.5
t14 -21.5t10 -29.5t2.5 -39zM174 362l69 2v72q0 68 -1 69t-36 1q-32 0 -33 -1z" />
    <glyph glyph-name="S" unicode="S" horiz-adv-x="424" 
d="M24 146v112q72 -4 139 -4q1 0 4 -0.5t5 -0.5v-74v-21h59l1 112q-16 3 -61 10t-76 15.5t-49 21.5q-28 20 -28 66q0 163 4 192q4 27 16.5 45.5t27 28t44 14t51.5 5.5t66 1q43 0 65.5 -1t45.5 -6.5t32 -14t17 -27t9.5 -42t1.5 -62.5v-77q-21 0 -79 3t-68 3l1 79l-73 -2
l1 -81q8 -1 42 -7.5t44.5 -8.5t37 -9t37 -14t26 -18t22.5 -25.5t10 -32.5q3 -15 3 -97q0 -98 -3 -119q-3 -29 -8.5 -49.5t-18.5 -34t-26 -20.5t-40.5 -10.5t-50 -4.5t-65.5 -1q-99 0 -132.5 32t-33.5 124z" />
    <glyph glyph-name="T" unicode="T" horiz-adv-x="434" 
d="M133 -6l-1 492q-1 1 -28.5 1t-53.5 1h-27l-1 5v14t-0.5 19.5t-1 23.5t-0.5 25v76l33 1l363 3l2 -185q-18 -3 -119 -3q-1 -1 -1 -402v-72z" />
    <glyph glyph-name="U" unicode="U" horiz-adv-x="410" 
d="M387 639q0 -528 -1 -535q-3 -35 -14 -57.5t-25.5 -35.5t-46 -18.5t-58.5 -7t-80 -1.5q-38 0 -63 8.5t-39.5 22t-22 40t-9.5 52t-2 67.5v475h148v-475v-21h57l1 489z" />
    <glyph glyph-name="V" unicode="V" horiz-adv-x="436" 
d="M220 180l51 469l157 -1l-55 -630l-2 -18q-252 0 -304 2l-57 647l166 1z" />
    <glyph glyph-name="W" unicode="W" horiz-adv-x="691" 
d="M209 317l74 328l128 1l81 -327l32 326h162l-65 -655h-213l-59 310l-54 -308h-189l-100 660l167 -3z" />
    <glyph glyph-name="X" unicode="X" horiz-adv-x="477" 
d="M237 148l-52 -153l-171 1l95 322l-94 329l171 -1l62 -176l52 170h163l-89 -340l89 -314h-188z" />
    <glyph glyph-name="Y" unicode="Y" horiz-adv-x="428" 
d="M250 648h170l-119 -401l4 -252q0 -2 -112 -2q-67 0 -67 3l-2 251l-115 395h156l46 -205z" />
    <glyph glyph-name="Z" unicode="Z" horiz-adv-x="381" 
d="M241 -7h-216l-1 164q3 16 43 99.5t78 160.5t38 78q-1 1 -39 1h-76l-38 1v154l331 -3v-155l-13 -29q-14 -28 -34 -69.5t-39.5 -84t-33 -74.5t-13.5 -38q21 0 73 0.5t53 0.5v-205z" />
    <glyph glyph-name="bracketleft" unicode="[" horiz-adv-x="350" 
d="M30 696h97h197v-90q-4 -2 -136 -2q4 -581 5 -605h130v-90q-6 -2 -234 -2l-59 1q-3 15 -3 402q0 124 1 184z" />
    <glyph glyph-name="backslash" unicode="\" horiz-adv-x="314" 
d="M288 0h-156l-114 656h148z" />
    <glyph glyph-name="bracketright" unicode="]" horiz-adv-x="344" 
d="M314 696v-787q-23 -1 -58 -1q-228 0 -234 2v90h130q1 33 2 147t1.5 263.5t0.5 193.5q-132 0 -136 2v90h197h97z" />
    <glyph glyph-name="asciicircum" unicode="^" horiz-adv-x="343" 
d="M240 642l76 -101h-123l-20 34l-21 -34h-125l82 101h131z" />
    <glyph glyph-name="underscore" unicode="_" horiz-adv-x="290" 
d="M264 -3l-1 -64h-236v64h237z" />
    <glyph glyph-name="grave" unicode="`" horiz-adv-x="261" 
d="M27 643h152l55 -111h-116z" />
    <glyph glyph-name="a" unicode="a" horiz-adv-x="444" 
d="M362 652l80 -661l-150 4l-24 176h-50h-46q-4 -21 -10 -84t-6 -78v-9h-152l79 652h279zM249 336l-3 21l-24 214l-7 -36l-21 -177l-3 -22h58z" />
    <glyph glyph-name="b" unicode="b" horiz-adv-x="427" 
d="M271 -15l-238 2l-6 671l240 1q85 0 109 -17.5t24 -89.5v-92q-1 -84 -10 -99q-5 -9 -16 -18t-18 -11q-6 -2 -6 -3q0 -3 11 -8q29 -16 37 -50t8 -97v-60q0 -40 -3.5 -61t-17 -38.5t-40.5 -23.5t-74 -6zM182 137h69q0 21 1 62t1 63l-70 -1zM176 395l62 -1l-1 131h-63z" />
    <glyph glyph-name="c" unicode="c" horiz-adv-x="407" 
d="M179 501l2 -348l62 1l1 100l141 1v-82v-70v-19q-7 -65 -43 -83t-118 -18q-6 0 -19 0.5t-20 0.5q-55 0 -87.5 9.5t-49 33t-21 50.5t-4.5 76q0 13 0.5 42t0.5 47v279q0 79 38.5 111t139.5 32q51 0 81.5 -4t52.5 -12.5t31.5 -28t13.5 -44.5t4 -68v-107h-145q0 61 -1 100z
" />
    <glyph glyph-name="d" unicode="d" horiz-adv-x="403" 
d="M27 652q3 0 20 0.5t60 1.5t103 1h18q47 0 63 -2q19 -2 32.5 -8t23 -12.5t15.5 -21.5t9.5 -24t5 -32.5t2 -35t0.5 -41.5q0 -12 0.5 -61t0.5 -93v-82q0 -72 -2 -108q-5 -64 -29 -98.5t-76 -42.5q-18 -2 -115 -2q-126 0 -129 3zM171 145l66 1l-1 339h-65v-340z" />
    <glyph glyph-name="e" unicode="e" horiz-adv-x="352" 
d="M27 -6l2 656l305 5l-1 -146l-135 -4l-1 -90h113v-148l-45 -1l-89 -1q-1 0 -1 -13q0 -55 3 -70l152 2l1 -188z" />
    <glyph glyph-name="f" unicode="f" horiz-adv-x="345" 
d="M178 228l2 -227h-150l-3 654l298 3v-161h-8q-127 0 -129 -2l1 -82l105 -1l1 -182z" />
    <glyph glyph-name="g" unicode="g" horiz-adv-x="413" 
d="M173 160h82q1 1 1 59v17l-41 6l-3 147q23 0 97 -1t80 -1v-287q-2 -59 -25.5 -83t-78.5 -30q-47 -5 -96 -5q-74 0 -112 24.5t-45 83.5q-1 9 -5 197q-2 202 -2 235q0 67 1 72q5 32 31.5 51t64.5 20q2 0 29.5 0.5t61 0.5h51.5q75 0 100 -37t25 -121v-79l-152 -2v84h-70
q6 -288 6 -351z" />
    <glyph glyph-name="h" unicode="h" horiz-adv-x="423" 
d="M171 638l3 -219l73 3l-2 220l152 1v-644h-5h-28h-116l-3 249h-71v-258h-19h-128v647z" />
    <glyph glyph-name="i" unicode="i" horiz-adv-x="214" 
d="M187 1l-107 -1l-53 3v648l159 -1z" />
    <glyph glyph-name="j" unicode="j" horiz-adv-x="401" 
d="M13 287l143 -1l1 -105l65 -4v151q0 320 -2 322l155 3q1 -59 1 -362q0 -170 -2 -194q-11 -96 -81 -103q-16 -2 -121 -2q-54 0 -58 1q-95 11 -100 136v30t-0.5 65.5t-0.5 62.5z" />
    <glyph glyph-name="k" unicode="k" horiz-adv-x="433" 
d="M232 645h171v-132v-92q0 -32 -18.5 -56t-36.5 -32l-18 -8q0 -3 11 -8q3 -1 15.5 -6.5t18 -9t14 -9t13 -12.5t6.5 -16q4 -18 4 -137v-119l-168 1q-1 0 -2 210l-65 15l1 -235l-149 1l-2 654h149l2 -281l56 18v7q0 22 -1 124t-1 123z" />
    <glyph glyph-name="l" unicode="l" horiz-adv-x="344" 
d="M195 207l127 1l1 -212h-296v647h53h67h49z" />
    <glyph glyph-name="m" unicode="m" horiz-adv-x="575" 
d="M549 -16h-155l-6 301l-82 -265l-51 -1l-84 270l1 -262v-18l-140 -1l-5 637l189 3l65 -272l67 269h8q7 0 19.5 0.5t27 0.5h31.5h31h37.5h31.5l12 -1z" />
    <glyph glyph-name="n" unicode="n" horiz-adv-x="457" 
d="M170 -9l-140 4v89l-3 555l176 3q3 -2 11.5 -30.5t17 -60.5t11.5 -38q1 -2 7.5 -28t13 -48.5t8.5 -22.5q2 55 2 123v123h152l3 -449v-60.5t0.5 -53.5t1 -41.5t0.5 -29.5v-10l-131 -3h-11q-12 0 -17.5 2.5t-6 4.5t-2.5 12q-1 3 -4.5 14.5t-10.5 36t-17 53.5q-1 2 -6.5 23.5
t-12.5 46.5t-15.5 51.5t-15.5 43.5t-11 17q-1 0 -1 -21q0 -11 0.5 -56.5t0.5 -76.5v-173z" />
    <glyph glyph-name="o" unicode="o" 
d="M299 -10q-8 -1 -116 -1q-54 0 -58 1q-95 11 -100 135q0 2 -0.5 15t-0.5 34v43v203q0 10 -0.5 28.5t-0.5 26.5q0 46 2.5 72t12 53t28.5 39.5t52 20.5t83 8h10q60 0 91 -6t50 -28t23.5 -53.5t4.5 -94.5v-198v-160v-34q-11 -97 -81 -104zM168 154l65 -1l-2 352l-66 -1z" />
    <glyph glyph-name="p" unicode="p" horiz-adv-x="398" 
d="M375 304q0 -23 -7 -39.5t-22.5 -27t-30.5 -16.5t-41.5 -8.5t-44.5 -3t-50 -0.5h-6v-22q0 -160 3 -191h-143l-6 654l234 1q70 0 92 -24t22 -95v-228zM170 364l61 1l-2 145l-58 -1z" />
    <glyph glyph-name="q" unicode="q" horiz-adv-x="392" 
d="M232 155v5t0.5 14t1 21t0.5 28t0.5 33.5t1 38t0.5 40.5l1 178l-68 1q-1 -1 -1 -181l-1 -178h65zM106 -1q-69 7 -80 104q-2 24 -2 193q0 141 1 200q1 44 2.5 68.5t8 47.5t15.5 33t29 18.5t44.5 10.5t65.5 2h8h3h25q74 0 107 -22t36 -76v-150q0 -279 -1 -294
q-2 -60 -20 -92.5t-59 -41.5v-47h-171v45h-8z" />
    <glyph glyph-name="r" unicode="r" horiz-adv-x="423" 
d="M257 655q85 0 109 -17t24 -89v-1v-91q-1 -84 -10 -99q-5 -9 -16 -18t-18 -11q-6 -1 -6 -4t11 -8q20 -10 30 -21t14 -32q4 -18 4 -137v-119l-157 1q-1 0 -2 234l-63 -1v-243l-144 1q-2 3 -3 133q-3 274 -3 521zM175 392q1 -1 21 -1h44v7q0 22 -1 65.5t-1 64.5h-65z" />
    <glyph glyph-name="s" unicode="s" horiz-adv-x="418" 
d="M28 144v120q90 -5 137 -5h9l1 -85v-21l71 -3l-6 117q-14 3 -62.5 10.5t-79 16t-48.5 21.5q-27 19 -27 66q0 169 3 191q4 27 16 45.5t25 28t41 14t49 5.5t65 1q43 0 65.5 -1t45.5 -6.5t32 -14t17 -27t9.5 -42t1.5 -62.5v-67q-21 0 -81.5 -2t-72.5 -2l1 92l-69 -5l-1 -91
q83 -14 175 -41q18 -5 32 -26t18 -47q2 -10 2 -97q0 -105 -2 -119q-3 -35 -14.5 -57.5t-27 -35.5t-48 -19t-61 -7.5t-82.5 -1.5q-32 0 -54 2.5t-37 11t-23.5 18.5t-13 30.5t-5.5 40t-1 54.5z" />
    <glyph glyph-name="t" unicode="t" horiz-adv-x="382" 
d="M274 480q1 -423 1 -476h-76h-58h-31l1 472h-93v182h350v-178h-94z" />
    <glyph glyph-name="u" unicode="u" horiz-adv-x="422" 
d="M167 644q3 -288 3 -483h73q1 1 1 62l-1 430l151 5l4 -548q-2 -60 -26 -88t-78 -34q-47 -5 -113 -5q-69 0 -105.5 24.5t-43.5 83.5q-1 9 -5 198q-2 202 -2 355h142z" />
    <glyph glyph-name="v" unicode="v" horiz-adv-x="451" 
d="M217 189l64 445l2 12h167l-83 -654l-293 -1l-68 660l162 -3z" />
    <glyph glyph-name="w" unicode="w" horiz-adv-x="641" 
d="M572 -9q-1 -1 -101 -1q-115 0 -119 1l-42 299l-2 2q1 -1 1 -2l-71 -294l-189 -3l-41 653l158 -2v-6q0 -5 0.5 -13t0.5 -15q0 -4 3.5 -86t7 -158t4.5 -76l3 2l84 347q29 0 71 -0.5t71 -0.5q3 -35 21.5 -170.5t20.5 -184.5l43 362l145 -1q0 -1 -0.5 -5.5t-0.5 -7.5z" />
    <glyph glyph-name="x" unicode="x" horiz-adv-x="448" 
d="M10 648l175 -3l48 -212l57 224l144 -1l-62 -333l62 -327h-186l-40 189l-47 -191l-151 1l70 321z" />
    <glyph glyph-name="y" unicode="y" horiz-adv-x="433" 
d="M280 649h153l-131 -421l4 -229h-171l-2 229l-131 421h167l55 -183z" />
    <glyph glyph-name="z" unicode="z" horiz-adv-x="374" 
d="M347 460l-142 -315q16 0 80 0.5t65 0.5v-150h-325l3 141l154 327l-156 1v185q50 0 160 -1t161 -1v-188z" />
    <glyph glyph-name="braceleft" unicode="{" horiz-adv-x="340" 
d="M272 50v-28l42 -2v-106l-38 -2q-35 0 -57 1.5t-50 8.5t-42 23.5t-14 42.5l3 288l-89 17l1 67l85 16v258q0 26 14 42.5t42 23.5t50 8.5t57 1.5l38 -2v-106l-42 -1v-221q-4 -44 -72 -54q66 -8 71 -42q2 -12 2 -129q0 -25 -0.5 -62t-0.5 -43z" />
    <glyph glyph-name="bar" unicode="|" horiz-adv-x="173" 
d="M146 -81l-116 1l-3 778h115z" />
    <glyph glyph-name="braceright" unicode="}" horiz-adv-x="335" 
d="M63 49q0 7 -0.5 44t-0.5 61q0 111 3 129q5 34 71 42q-69 10 -73 54v193v29l-41 1v106l37 2q36 0 57.5 -1.5t50 -8.5t42.5 -23.5t14 -42.5v-259l85 -16l1 -67l-89 -17l3 -288q0 -26 -14 -42.5t-42.5 -23.5t-50 -8.5t-57.5 -1.5l-37 2v106l41 1v29z" />
    <glyph glyph-name="asciitilde" unicode="~" horiz-adv-x="318" 
d="M292 648v-109q-40 -12 -68 -12q-25 0 -62.5 11t-57.5 11q-32 0 -77 -22v110q46 15 79 15q22 0 55 -8.5t55 -8.5q33 0 76 13z" />
    <glyph glyph-name="exclamdown" unicode="&#xa1;" horiz-adv-x="232" 
d="M177 605q0 -29 -21 -49t-50 -20t-49 20t-20 49t20 50t49 21t50 -21t21 -50zM173 506l8 -592q-27 0 -80 0.5t-79 0.5l19 589z" />
    <glyph glyph-name="cent" unicode="&#xa2;" horiz-adv-x="376" 
d="M151 454l2 -243l63 2v72l131 1q4 -4 4 -55q0 -43 -2 -63q-6 -63 -32 -81.5t-91 -19.5l2 -66h-81l-1 67q-20 1 -35.5 4t-27.5 7t-21 14t-15 17.5t-10 25.5t-6.5 30.5t-3.5 39.5t-1 45.5v55.5v140q0 75 23 106.5t96 35.5l-1 55q28 0 40 -0.5t40 -0.5l2 -53q31 -1 51 -3.5
t34.5 -11.5t21.5 -17t11 -30t4.5 -39.5t0.5 -55.5l1 -58l-134 1v77z" />
    <glyph glyph-name="sterling" unicode="&#xa3;" horiz-adv-x="449" 
d="M268 397v-123h-69v-143q31 0 48 4.5t25 19.5t9.5 31t1.5 52v7h10q47 0 137 5v-106q0 -50 -6 -76.5t-29 -46.5t-64 -26t-114 -6q-45 0 -103.5 -0.5t-95.5 -0.5v146h37v42v98h-37v123h37v175q0 27 10 45t24 28t43 15t53 6t67 1q46 0 69.5 -1t47.5 -6.5t33.5 -14t18 -27.5
t10 -42.5t1.5 -62.5v-67q-20 0 -84.5 -2t-79.5 -2v88h-71l2 -92v-41h69z" />
    <glyph glyph-name="currency" unicode="&#xa4;" horiz-adv-x="403" 
d="M168 170q7 -1 17 -1h10l25 1v143q0 143 -2 145h-29l-24 -1l1 -143q0 -17 0.5 -46t0.5 -40zM336 283v-80q0 -69 -7 -101l49 -113h-53l-28 65q-12 -8 -28 -9q-7 -1 -89 -1h-22t-17.5 0.5t-7.5 0.5q-22 3 -34 10l-27 -66h-54l50 112q-6 22 -8 53v11.5t-0.5 27.5t-0.5 34v288
q2 17 6 27l-43 103h45l30 -72q32 14 98 14h7q74 0 99 -15l32 73h45l-49 -118q4 -19 6 -72v-13q1 -47 1 -159z" />
    <glyph glyph-name="yen" unicode="&#xa5;" horiz-adv-x="481" 
d="M302 654h154l-133 -425h1h69v-47h-69l1 -31h68v-48h-67l1 -103h-187l-1 102h-71v48h33h38l-1 31h-70v47h33h37v1l-121 425h174l56 -183z" />
    <glyph glyph-name="brokenbar" unicode="&#xa6;" horiz-adv-x="169" 
d="M143 -1l-116 1v270h116v-271zM143 331l-116 1v313h116v-314z" />
    <glyph glyph-name="section" unicode="&#xa7;" horiz-adv-x="295" 
d="M261 240q8 -19 8 -35q0 -3 -0.5 -19t-0.5 -30q0 -74 -1 -79q-5 -54 -34.5 -66.5t-113.5 -12.5q-60 0 -74.5 19.5t-14.5 83.5v78q36 -3 91 -3h5v-70h44v52v14q0 9 -2 10q-16 4 -49.5 8.5t-48.5 8.5t-29 18.5t-14 39.5q0 111 2 126q3 21 10 32q-12 13 -12 38q0 111 2 126
q4 22 12 35t27 18.5t34.5 6.5t52.5 1q76 0 93.5 -14.5t17.5 -85.5v-44q-13 0 -53 -1t-48 -1l1 57l-42 1l1 -62q68 -12 109 -26q27 -9 33 -49q1 -3 1 -64q0 -15 0.5 -34.5t0.5 -24.5q0 -27 -8 -52zM126 356v-54h39l1 53z" />
    <glyph glyph-name="dieresis" unicode="&#xa8;" horiz-adv-x="272" 
d="M246 607q0 -22 -14.5 -36.5t-36.5 -14.5t-36.5 14.5t-14.5 36.5t14.5 36t36.5 14t36.5 -14t14.5 -36zM128 607q0 -22 -14.5 -36.5t-36.5 -14.5t-36 14.5t-14 36.5t14 36t36 14t36.5 -14t14.5 -36z" />
    <glyph glyph-name="copyright" unicode="&#xa9;" horiz-adv-x="798" 
d="M393 402l3 -174l30 1l2 51h97q3 -3 3 -50q0 -10 -1 -22t-1 -13q-5 -34 -30.5 -42.5t-88.5 -8.5h-10q-73 1 -92.5 19.5t-19.5 68.5v182q0 39 27 54.5t95 15.5q78 0 98.5 -13t20.5 -64v-55h-100q-1 31 -1 50h-32zM402 -15q-101 0 -170 10.5t-107.5 26t-58 45.5t-24.5 57
t-5 73q0 15 0.5 48t0.5 52v166q0 30 3 50.5t14 45.5t34 41t60 30.5t96.5 21.5t139.5 7h40q95 0 161.5 -11t102.5 -27.5t55.5 -44.5t24 -52t4.5 -61v-241q0 -30 -0.5 -47t-4 -41.5t-10.5 -38t-20 -32t-31.5 -28t-46.5 -21t-64.5 -17t-85 -9t-108.5 -3.5zM407 117
q75 0 119.5 4.5t65 17t25.5 25.5t5 39v253q0 24 -10.5 34.5t-51.5 17t-129 6.5h-50q-88 0 -129.5 -6.5t-52 -17t-10.5 -34.5v-184q0 -14 -1 -37t-1 -31q0 -33 12.5 -49.5t61 -27t146.5 -10.5z" />
    <glyph glyph-name="ordfeminine" unicode="&#xaa;" horiz-adv-x="244" 
d="M190 640l29 -334l-72 2l-8 91h-17l-18 -1q-5 -38 -5 -83v-6h-9q-1 0 -9 -0.5t-19.5 -0.5h-18.5q-16 0 -17 1v2v3q8 85 16 199l10 126zM132 481l-1 12l-8 106l-2 -18l-8 -88l-1 -12h20z" />
    <glyph glyph-name="guillemotleft" unicode="&#xab;" horiz-adv-x="349" 
d="M195 368l128 101v-142l-40 -33l40 -34v-143l-128 109v142zM27 370l128 101v-142l-53 -33l53 -34v-143l-128 109v142z" />
    <glyph glyph-name="logicalnot" unicode="&#xac;" horiz-adv-x="302" 
d="M275 385v-10v-188h-64v74h-184v123z" />
    <glyph glyph-name="uni00AD" unicode="&#xad;" horiz-adv-x="240" 
d="M214 385v-124h-187v124h57h130z" />
    <glyph glyph-name="registered" unicode="&#xae;" horiz-adv-x="714" 
d="M381 482q42 0 54 -8.5t12 -44.5v-1v-45q0 -40 -5 -49q-7 -14 -17 -16h-2t-1 -1l6 -4q19 -9 23 -26q3 -9 3 -69v-59h-77q0 30 -1 116h-31l1 -48q0 -16 0.5 -38t0.5 -23v-12l-68 1q-3 3 -4 66q-1 91 -1 261h107zM346 350h9h18v4v65h-28zM355 -15q-90 0 -152 10t-96.5 26
t-52.5 45.5t-22.5 57t-4.5 73.5q0 15 0.5 48t0.5 52v166q0 37 4 61t22 52t50 44.5t92 27.5t145 11h36q84 0 143.5 -11t91.5 -27.5t49.5 -44.5t22 -52.5t4.5 -60.5v-166v-51v-24q0 -54 -3 -82t-20 -63.5t-51.5 -51.5t-98.5 -28t-160 -12zM360 117q64 0 102 4.5t56 17
t22.5 25.5t4.5 39v26v43v161v23q0 24 -9 34.5t-44.5 17t-110.5 6.5h-43q-76 0 -112 -6.5t-45.5 -17.5t-9.5 -34v-23v-161q0 -14 -1 -37t-1 -31q0 -33 11 -49.5t53.5 -27t126.5 -10.5z" />
    <glyph glyph-name="macron" unicode="&#xaf;" horiz-adv-x="240" 
d="M214 645v-90h-187v90h57h130z" />
    <glyph glyph-name="degree" unicode="&#xb0;" horiz-adv-x="183" 
d="M123 479h-38h-22q-19 2 -26.5 15.5t-9.5 39.5v75q2 37 63 37h2q43 -1 53 -13t11 -60q0 -9 0.5 -28.5t0.5 -27.5q0 -2 0 1l-1 3q-5 -39 -33 -42zM81 542h18l-1 39h-19z" />
    <glyph glyph-name="plusminus" unicode="&#xb1;" horiz-adv-x="320" 
d="M294 210v-111h-267v111h267zM108 438v78h110v-78h76v-111h-76v-78h-110v78h-81v110z" />
    <glyph glyph-name="uni00B2" unicode="&#xb2;" horiz-adv-x="232" 
d="M203 401l-1 -88h-173q-2 26 -2 38q0 41 12 71t26.5 43t33 29.5t26.5 29.5q5 10 5 33v14h-28l1 -42h-73v37q0 40 26 58.5t58 18.5q50 0 71 -17.5t21 -58.5q0 -35 -16 -65t-34.5 -46.5t-34.5 -31t-16 -22.5v-1h98z" />
    <glyph glyph-name="uni00B3" unicode="&#xb3;" horiz-adv-x="222" 
d="M94 430v-31l25 1v56l-45 -1v57h46q0 11 0.5 33t0.5 33v4l-28 -1l-1 -43h-64q0 11 -0.5 28t-0.5 23q0 37 14 46.5t68 9.5q47 0 65.5 -9t18.5 -44v-46q0 -40 -6 -50q-7 -14 -16 -16h-3q-1 0 -1 -1l6 -4l7 -3.5t5.5 -3.5t5.5 -5t3 -5.5t2 -8.5v-79q0 -38 -15 -49t-68 -11
q-55 0 -70 13t-15 60v11l1 36h65z" />
    <glyph glyph-name="acute" unicode="&#xb4;" horiz-adv-x="261" 
d="M234 644l-90 -112h-117l56 112h151z" />
    <glyph glyph-name="mu" unicode="&#xb5;" horiz-adv-x="489" 
d="M464 0q-14 0 -56.5 -1t-66.5 -1q-175 0 -175 34v-55v-83h-135q-4 356 -4 750h143q4 -380 4 -482v-1l31 -1q42 0 43 1t1 62l-1 430l151 5l4 -537h60q0 -12 0.5 -35t0.5 -35v-51z" />
    <glyph glyph-name="paragraph" unicode="&#xb6;" horiz-adv-x="587" 
d="M29 293l-1 43q0 43 -0.5 101t-0.5 95q0 73 21.5 95t91.5 22h174h4h34h7h162h34h6l-7 -649h-141q2 18 2 115v76v22l3 293q0 2 -20 2h-31h-11l-5 -512h-141q2 31 2 191v22q-2 0 -13.5 -1t-24.5 -1q-68 0 -105 18q-40 18 -40 68z" />
    <glyph glyph-name="periodcentered" unicode="&#xb7;" horiz-adv-x="180" 
d="M154 276h-127v121h126q0 -12 0.5 -34.5t0.5 -34.5v-52z" />
    <glyph glyph-name="cedilla" unicode="&#xb8;" horiz-adv-x="200" 
d="M116 22l-8 -33h23q31 0 39 -3q13 -6 13 -17q0 -1 -0.5 -2.5t-0.5 -2.5t-1.5 -8t-3.5 -18t-4 -19q-6 -30 -10 -41q-6 -19 -20 -28.5t-28 -11t-42 -1.5q-58 0 -58 23q0 9 5 31l5 21h59h4l-5 -16h20l10 38h-21l-1 -6l-61 1l25 95z" />
    <glyph glyph-name="uni00B9" unicode="&#xb9;" horiz-adv-x="164" 
d="M57 558h-30v87h109q2 -8 2 -252v-69h-80v116q0 94 -1 118z" />
    <glyph glyph-name="ordmasculine" unicode="&#xba;" horiz-adv-x="226" 
d="M188 299l-2 -87h-149v87h151zM155 324h-20q-20 -1 -32 -1q-6 0 -12 0.5t-10 0.5h-5q-26 3 -36.5 19t-12.5 48v196q1 26 22 35.5t62 9.5h3q57 -1 70.5 -15.5t14.5 -74.5q0 -14 0.5 -33.5t0.5 -36.5q0 -90 -1 -96q-6 -48 -44 -52zM127 551h-17l-18 -1l1 -77v-35l1 -37h34
v72z" />
    <glyph glyph-name="guillemotright" unicode="&#xbb;" horiz-adv-x="349" 
d="M155 368v-142l-128 -109v143l40 34l-40 33v142zM323 370v-142l-128 -109v143l52 34l-52 33v142z" />
    <glyph glyph-name="onequarter" unicode="&#xbc;" horiz-adv-x="560" 
d="M444 263l-37 -89h38zM445 116l-109 -1l1 53l74 154h105v-148h18v-58h-18v-116h-70zM70 558h-31v87h109q3 -12 3 -252v-69h-80v116q0 94 -1 118zM27 0l381 656h126l-390 -656h-117z" />
    <glyph glyph-name="onehalf" unicode="&#xbd;" horiz-adv-x="559" 
d="M525 88l-1 -87h-166q-2 26 -2 38q0 42 11.5 71.5t25.5 42.5t32.5 29t26.5 29q6 12 6 33v14h-23l1 -42h-74v37q0 41 24.5 59t55.5 18q50 0 71 -17.5t21 -58.5q-1 -35 -17 -65t-34 -46.5t-33 -31t-15 -22.5v-1h90zM70 558h-31v87h109q3 -12 3 -252v-69h-80v116q0 94 -1 118
zM27 0l369 656h113l-365 -656h-117z" />
    <glyph glyph-name="threequarters" unicode="&#xbe;" horiz-adv-x="585" 
d="M55 0l382 656h123l-387 -656h-118zM460 263l-37 -89h39zM462 116l-111 -1l2 53l73 154h106v-148h18v-58h-18v-116h-69zM93 430v-31l18 1v57l-38 -1v56h39q0 11 0.5 33t0.5 33v4l-21 -1l-1 -43h-64v51q0 37 12 46.5t64 9.5q47 0 66 -9t19 -44v-46q0 -41 -7 -49
q-10 -14 -18 -16q-1 -1 -3 -1h-1l6 -4q1 -1 5 -2.5t5.5 -2t4.5 -2t4.5 -2.5t3.5 -3t3 -4t2 -4.5t1 -5.5v-79q0 -37 -17 -48.5t-69 -11.5q-53 0 -67 13t-14 59v11l1 36h65z" />
    <glyph glyph-name="questiondown" unicode="&#xbf;" horiz-adv-x="437" 
d="M189 511h135q0 -28 1.5 -98t1.5 -79v-5q-9 -61 -34 -80.5t-95 -34.5l-1 -154l47 2v107q10 0 65.5 1t76.5 1v-104q0 -39 -1.5 -62.5t-9.5 -42t-16.5 -27t-31 -14t-43.5 -6.5t-62 -1q-37 0 -54.5 0.5t-43 3t-37 8t-25.5 16t-20.5 26.5t-10.5 39q-4 29 -4 243q0 45 28 65
q10 7 20.5 13t18 9.5t21.5 7.5t20 5.5t24.5 5.5t25.5 6zM188 612q0 29 21 50t50 21t49.5 -21t20.5 -50t-20.5 -49t-49.5 -20t-50 20t-21 49z" />
    <glyph glyph-name="Agrave" unicode="&#xc0;" horiz-adv-x="430" 
d="M71 784h152l55 -111h-116zM266 3l-13 140l-89 2q-8 -97 -9 -142l-144 1l63 642l279 -1l76 -642h-163zM181 316l28 1l30 2l-20 200l-18 2z" />
    <glyph glyph-name="Aacute" unicode="&#xc1;" horiz-adv-x="430" 
d="M369 785l-90 -112h-117l56 112h151zM266 3l-13 140l-89 2q-8 -97 -9 -142l-144 1l63 642l279 -1l76 -642h-163zM181 316l28 1l30 2l-20 200l-18 2z" />
    <glyph glyph-name="Acircumflex" unicode="&#xc2;" horiz-adv-x="430" 
d="M288 775l76 -101h-123l-20 34l-21 -34h-125l82 101h131zM266 3l-13 140l-89 2q-8 -97 -9 -142l-144 1l63 642l279 -1l76 -642h-163zM181 316l28 1l30 2l-20 200l-18 2z" />
    <glyph glyph-name="Atilde" unicode="&#xc3;" horiz-adv-x="430" 
d="M353 797v-112q-37 -11 -68 -11q-25 0 -62.5 12t-57.5 12q-30 0 -77 -24v112q46 15 79 15q22 0 55 -9t55 -9q30 0 76 14zM266 3l-13 140l-89 2q-8 -97 -9 -142l-144 1l63 642l279 -1l76 -642h-163zM181 316l28 1l30 2l-20 200l-18 2z" />
    <glyph glyph-name="Adieresis" unicode="&#xc4;" horiz-adv-x="430" 
d="M330 725q0 -22 -14.5 -36.5t-36.5 -14.5t-36.5 14.5t-14.5 36.5t14.5 36t36.5 14t36.5 -14t14.5 -36zM212 725q0 -22 -14.5 -36.5t-36.5 -14.5t-36 14.5t-14 36.5t14 36t36 14t36.5 -14t14.5 -36zM266 3l-13 140l-89 2q-8 -97 -9 -142l-144 1l63 642l279 -1l76 -642h-163
zM181 316l28 1l30 2l-20 200l-18 2z" />
    <glyph glyph-name="Aring" unicode="&#xc5;" horiz-adv-x="430" 
d="M204 697h25v35l-27 -1zM187 316l28 1l30 2l-20 200l-18 2zM272 3l-13 140l-89 2q-8 -97 -9 -142l-144 1l63 642h83q-11 11 -13 43v72q1 22 17 29t49 7h3q45 -1 56 -12.5t12 -59.5v-32v-16q-3 -22 -13 -32h85l76 -642h-163z" />
    <glyph glyph-name="AE" unicode="&#xc6;" horiz-adv-x="608" 
d="M179 322l28 1l47 1v199l-59 1zM255 2v4q0 15 -0.5 45.5t-0.5 46.5v45l-46 2h-46q-8 -97 -9 -142q0 -3 -87 -3q-57 0 -57 4q16 199 65 630l2 21h509q1 -7 1 -75v-73q-20 0 -60 0.5t-59 0.5h-44l4 -78l131 -3q1 -50 1 -152l-104 -2v-73l126 -1l1 -196z" />
    <glyph glyph-name="Ccedilla" unicode="&#xc7;" horiz-adv-x="408" 
d="M241 271l143 1q0 -155 -2 -177q-11 -97 -80 -104q-14 -2 -80 -2l-4 -17h24q31 0 39 -3q13 -7 13 -16q0 -1 -0.5 -2.5t-0.5 -2.5t-1.5 -8t-3.5 -18t-4 -19q-5 -22 -11 -41t-20 -28.5t-28 -11t-42 -1.5q-57 0 -57 22q0 10 5 32l4 21h60h4l-5 -17h20l9 39h-20l-1 -6l-62 1
l21 76q-41 0 -44 1q-49 6 -69 39t-22 97q-1 15 -1 291q0 36 0.5 73.5t0.5 60v23.5q2 36 28 57t62.5 27.5t91.5 6.5h10q40 0 65 -2t45 -10.5t29.5 -18.5t16 -33.5t8 -48t2.5 -68.5v-73l-143 -5l-2 96h-67l1 -175q0 -43 0.5 -88.5t0.5 -68.5l1 -24q0 -1 15 -1q11 0 31 1h20
v125z" />
    <glyph glyph-name="Egrave" unicode="&#xc8;" horiz-adv-x="358" 
d="M32 784h152l55 -111h-116zM32 6q0 304 -5 652q21 0 144 -1t164 -1q1 -7 1 -78v-73q-20 0 -67.5 1.5t-66.5 1.5h-33v-33q0 -43 2 -45l135 -5q1 -50 1 -152h-120v-73l142 -3l1 -196l-298 1v4z" />
    <glyph glyph-name="Eacute" unicode="&#xc9;" horiz-adv-x="358" 
d="M330 785l-90 -112h-117l56 112h151zM32 6q0 304 -5 652q21 0 144 -1t164 -1q1 -7 1 -78v-73q-20 0 -67.5 1.5t-66.5 1.5h-33v-33q0 -43 2 -45l135 -5q1 -50 1 -152h-120v-73l142 -3l1 -196l-298 1v4z" />
    <glyph glyph-name="Ecircumflex" unicode="&#xca;" horiz-adv-x="358" 
d="M250 775l76 -101h-123l-20 34l-21 -34h-125l82 101h131zM32 6q0 304 -5 652q21 0 144 -1t164 -1q1 -7 1 -78v-73q-20 0 -67.5 1.5t-66.5 1.5h-33v-33q0 -43 2 -45l135 -5q1 -50 1 -152h-120v-73l142 -3l1 -196l-298 1v4z" />
    <glyph glyph-name="Edieresis" unicode="&#xcb;" horiz-adv-x="358" 
d="M291 725q0 -22 -14.5 -36.5t-36.5 -14.5t-36.5 14.5t-14.5 36.5t14.5 36t36.5 14t36.5 -14t14.5 -36zM173 725q0 -22 -14.5 -36.5t-36.5 -14.5t-36 14.5t-14 36.5t14 36t36 14t36.5 -14t14.5 -36zM32 6q0 304 -5 652q21 0 144 -1t164 -1q1 -7 1 -78v-73q-20 0 -67.5 1.5
t-66.5 1.5h-33v-33q0 -43 2 -45l135 -5q1 -50 1 -152h-120v-73l142 -3l1 -196l-298 1v4z" />
    <glyph glyph-name="Igrave" unicode="&#xcc;" horiz-adv-x="214" 
d="M-42 784h152l55 -111h-116zM188 1l-161 1v643q27 0 81 1t80 1q0 -16 -0.5 -186.5t-0.5 -269.5q0 -158 1 -190z" />
    <glyph glyph-name="Iacute" unicode="&#xcd;" horiz-adv-x="215" 
d="M256 785l-90 -112h-117l56 112h151zM188 1l-161 1v643q27 0 81 1t80 1q0 -16 -0.5 -186.5t-0.5 -269.5q0 -158 1 -190z" />
    <glyph glyph-name="Icircumflex" unicode="&#xce;" horiz-adv-x="214" 
d="M176 775l76 -101h-123l-20 34l-21 -34h-125l82 101h131zM188 1l-161 1v643q27 0 81 1t80 1q0 -16 -0.5 -186.5t-0.5 -269.5q0 -158 1 -190z" />
    <glyph glyph-name="Idieresis" unicode="&#xcf;" horiz-adv-x="214" 
d="M217 725q0 -22 -14.5 -36.5t-36.5 -14.5t-36.5 14.5t-14.5 36.5t14.5 36t36.5 14t36.5 -14t14.5 -36zM99 725q0 -22 -14.5 -36.5t-36.5 -14.5t-36 14.5t-14 36.5t14 36t36 14t36.5 -14t14.5 -36zM188 1l-161 1v643q27 0 81 1t80 1q0 -16 -0.5 -186.5t-0.5 -269.5
q0 -158 1 -190z" />
    <glyph glyph-name="Eth" unicode="&#xd0;" horiz-adv-x="416" 
d="M244 183l-4 322l-70 -1l2 -120h3h24v-90h-25l2 -112zM27 0v30v264h-16v90h16v278l243 2q89 0 112 -63q10 -29 12 -338v-77q0 -99 -19.5 -136.5t-90.5 -44.5q-25 -2 -141 -3z" />
    <glyph glyph-name="Ntilde" unicode="&#xd1;" horiz-adv-x="477" 
d="M371 797v-112q-37 -11 -68 -11q-25 0 -62.5 12t-57.5 12q-30 0 -77 -24v112q46 15 79 15q22 0 55 -9t55 -9q30 0 76 14zM188 3l-158 3v109l-3 540l75 -1q102 0 107 -3l73 -218l1 216h162q1 -72 2 -217.5t2 -217.5v-60.5t0.5 -53.5t1 -41.5t0.5 -28.5v-11l-125 -3h-12
q-18 0 -24 3.5t-8 15.5l-94 256q-1 0 -1 -61q0 -41 0.5 -129t0.5 -98z" />
    <glyph glyph-name="Ograve" unicode="&#xd2;" horiz-adv-x="415" 
d="M59 784h152l55 -111h-116zM252 174l-4 326h-72v-327zM391 103q0 -70 -44.5 -94t-141.5 -24q-27 0 -48.5 1.5t-39 6.5t-30.5 9.5t-23 16t-16.5 19.5t-11 26.5t-6.5 31t-3.5 39.5t-1.5 44.5v53.5v11v277q0 79 37 111t139 32h1q116 0 152.5 -37t36.5 -140v-7v-144v-233z" />
    <glyph glyph-name="Oacute" unicode="&#xd3;" horiz-adv-x="415" 
d="M356 785l-90 -112h-117l56 112h151zM252 174l-4 326h-72v-327zM391 103q0 -70 -44.5 -94t-141.5 -24q-27 0 -48.5 1.5t-39 6.5t-30.5 9.5t-23 16t-16.5 19.5t-11 26.5t-6.5 31t-3.5 39.5t-1.5 44.5v53.5v11v277q0 79 37 111t139 32h1q116 0 152.5 -37t36.5 -140v-7v-144
v-233z" />
    <glyph glyph-name="Ocircumflex" unicode="&#xd4;" horiz-adv-x="415" 
d="M276 775l76 -101h-123l-20 34l-21 -34h-125l82 101h131zM252 174l-4 326h-72v-327zM391 103q0 -70 -44.5 -94t-141.5 -24q-27 0 -48.5 1.5t-39 6.5t-30.5 9.5t-23 16t-16.5 19.5t-11 26.5t-6.5 31t-3.5 39.5t-1.5 44.5v53.5v11v277q0 79 37 111t139 32h1q116 0 152.5 -37
t36.5 -140v-7v-144v-233z" />
    <glyph glyph-name="Otilde" unicode="&#xd5;" horiz-adv-x="415" 
d="M341 797v-112q-37 -11 -68 -11q-25 0 -62.5 12t-57.5 12q-30 0 -77 -24v112q46 15 79 15q22 0 55 -9t55 -9q30 0 76 14zM252 174l-4 326h-72v-327zM391 103q0 -70 -44.5 -94t-141.5 -24q-27 0 -48.5 1.5t-39 6.5t-30.5 9.5t-23 16t-16.5 19.5t-11 26.5t-6.5 31t-3.5 39.5
t-1.5 44.5v53.5v11v277q0 79 37 111t139 32h1q116 0 152.5 -37t36.5 -140v-7v-144v-233z" />
    <glyph glyph-name="Odieresis" unicode="&#xd6;" horiz-adv-x="415" 
d="M318 725q0 -22 -14.5 -36.5t-36.5 -14.5t-36.5 14.5t-14.5 36.5t14.5 36t36.5 14t36.5 -14t14.5 -36zM200 725q0 -22 -14.5 -36.5t-36.5 -14.5t-36 14.5t-14 36.5t14 36t36 14t36.5 -14t14.5 -36zM252 174l-4 326h-72v-327zM391 103q0 -70 -44.5 -94t-141.5 -24
q-27 0 -48.5 1.5t-39 6.5t-30.5 9.5t-23 16t-16.5 19.5t-11 26.5t-6.5 31t-3.5 39.5t-1.5 44.5v53.5v11v277q0 79 37 111t139 32h1q116 0 152.5 -37t36.5 -140v-7v-144v-233z" />
    <glyph glyph-name="multiply" unicode="&#xd7;" horiz-adv-x="397" 
d="M202 232l-26 -77l-149 -2l97 164l-96 166l149 -2l30 -88l26 86h138l-93 -171l93 -157h-151z" />
    <glyph glyph-name="Oslash" unicode="&#xd8;" horiz-adv-x="399" 
d="M377 103q0 -70 -45 -94t-142 -24q-85 0 -125 22l-4 -7h-53l22 45q-20 43 -20 188v11v277q0 79 37 111t139 32h1q79 0 122 -18l4 10h47l-15 -34q32 -34 32 -135v-7v-144v-233zM162 330l71 154v16h-71v-170zM162 220v-47l76 1l-4 207z" />
    <glyph glyph-name="Ugrave" unicode="&#xd9;" horiz-adv-x="410" 
d="M57 784h152l55 -111h-116zM387 639q0 -528 -1 -535q-3 -35 -14 -57.5t-25.5 -35.5t-46 -18.5t-58.5 -7t-80 -1.5q-38 0 -63 8.5t-39.5 22t-22 40t-9.5 52t-2 67.5v475h148v-475v-21h57l1 489z" />
    <glyph glyph-name="Uacute" unicode="&#xda;" horiz-adv-x="410" 
d="M355 785l-90 -112h-117l56 112h151zM387 639q0 -528 -1 -535q-3 -35 -14 -57.5t-25.5 -35.5t-46 -18.5t-58.5 -7t-80 -1.5q-38 0 -63 8.5t-39.5 22t-22 40t-9.5 52t-2 67.5v475h148v-475v-21h57l1 489z" />
    <glyph glyph-name="Ucircumflex" unicode="&#xdb;" horiz-adv-x="410" 
d="M275 775l76 -101h-123l-20 34l-21 -34h-125l82 101h131zM387 639q0 -528 -1 -535q-3 -35 -14 -57.5t-25.5 -35.5t-46 -18.5t-58.5 -7t-80 -1.5q-38 0 -63 8.5t-39.5 22t-22 40t-9.5 52t-2 67.5v475h148v-475v-21h57l1 489z" />
    <glyph glyph-name="Udieresis" unicode="&#xdc;" horiz-adv-x="410" 
d="M316 725q0 -22 -14.5 -36.5t-36.5 -14.5t-36.5 14.5t-14.5 36.5t14.5 36t36.5 14t36.5 -14t14.5 -36zM198 725q0 -22 -14.5 -36.5t-36.5 -14.5t-36 14.5t-14 36.5t14 36t36 14t36.5 -14t14.5 -36zM387 639q0 -528 -1 -535q-3 -35 -14 -57.5t-25.5 -35.5t-46 -18.5
t-58.5 -7t-80 -1.5q-38 0 -63 8.5t-39.5 22t-22 40t-9.5 52t-2 67.5v475h148v-475v-21h57l1 489z" />
    <glyph glyph-name="Yacute" unicode="&#xdd;" horiz-adv-x="428" 
d="M363 785l-90 -112h-117l56 112h151zM250 648h170l-119 -401l4 -252q0 -2 -112 -2q-67 0 -67 3l-2 251l-115 395h156l46 -205z" />
    <glyph glyph-name="Thorn" unicode="&#xde;" 
d="M170 404v-104l67 1l-1 89l-2 56l-28 1l-35 -2zM378 229q0 -49 -40 -67q-39 -19 -108 -19q-17 0 -35 1t-21 1v-21q0 -97 3 -128h-148v758h137v-166h100q30 0 59.5 -8.5t40.5 -20.5q12 -12 13 -59q0 -4 0.5 -10.5t0.5 -20.5q0 -37 -0.5 -95t-1.5 -102v-43z" />
    <glyph glyph-name="germandbls" unicode="&#xdf;" horiz-adv-x="422" 
d="M216 172q39 0 39 51q0 23 -12.5 35t-33.5 12l-1 133h40v85q0 14 -11 23t-28 9q-14 0 -25.5 -10.5t-11.5 -31.5v-208l-1 -271l-139 1l-5 479v30q0 47 4 73t17.5 48t41 30.5t73.5 8.5h100q79 0 106 -28t27 -104v-68q0 -81 -10 -98q-5 -9 -16 -19t-18 -11q-6 -1 -6 -3t11 -8
q29 -16 37 -50t8 -97q0 -9 0.5 -25.5t0.5 -23.5q0 -79 -21 -107.5t-101 -28.5h-14h-53z" />
    <glyph glyph-name="agrave" unicode="&#xe0;" horiz-adv-x="444" 
d="M74 788h152l55 -111h-116zM362 652l80 -661l-150 4l-24 176h-50h-46q-4 -21 -10 -84t-6 -78v-9h-152l79 652h279zM249 336l-3 21l-24 214l-7 -36l-21 -177l-3 -22h58z" />
    <glyph glyph-name="aacute" unicode="&#xe1;" horiz-adv-x="444" 
d="M372 789l-90 -112h-117l56 112h151zM362 652l80 -661l-150 4l-24 176h-50h-46q-4 -21 -10 -84t-6 -78v-9h-152l79 652h279zM249 336l-3 21l-24 214l-7 -36l-21 -177l-3 -22h58z" />
    <glyph glyph-name="acircumflex" unicode="&#xe2;" horiz-adv-x="444" 
d="M292 779l76 -101h-123l-20 34l-21 -34h-125l82 101h131zM362 652l80 -661l-150 4l-24 176h-50h-46q-4 -21 -10 -84t-6 -78v-9h-152l79 652h279zM249 336l-3 21l-24 214l-7 -36l-21 -177l-3 -22h58z" />
    <glyph glyph-name="atilde" unicode="&#xe3;" horiz-adv-x="444" 
d="M356 801v-112q-37 -11 -68 -11q-25 0 -62.5 12t-57.5 12q-30 0 -77 -24v112q46 15 79 15q22 0 55 -9t55 -9q30 0 76 14zM362 652l80 -661l-150 4l-24 176h-50h-46q-4 -21 -10 -84t-6 -78v-9h-152l79 652h279zM249 336l-3 21l-24 214l-7 -36l-21 -177l-3 -22h58z" />
    <glyph glyph-name="adieresis" unicode="&#xe4;" horiz-adv-x="444" 
d="M333 729q0 -22 -14.5 -36.5t-36.5 -14.5t-36.5 14.5t-14.5 36.5t14.5 36t36.5 14t36.5 -14t14.5 -36zM215 729q0 -22 -14.5 -36.5t-36.5 -14.5t-36 14.5t-14 36.5t14 36t36 14t36.5 -14t14.5 -36zM362 652l80 -661l-150 4l-24 176h-50h-46q-4 -21 -10 -84t-6 -78v-9h-152
l79 652h279zM249 336l-3 21l-24 214l-7 -36l-21 -177l-3 -22h58z" />
    <glyph glyph-name="aring" unicode="&#xe5;" horiz-adv-x="444" 
d="M209 711h25v34l-27 -1zM249 336l-3 21l-24 214l-7 -36l-21 -177l-3 -22h58zM362 652l80 -661l-150 4l-24 176h-50h-46q-4 -21 -10 -84t-6 -78v-9h-152l79 652h95q-20 10 -23 50v72q1 22 17 29t49 7h3q45 -1 56 -12.5t12 -59.5v-31v-17q-3 -29 -21 -38h91z" />
    <glyph glyph-name="ae" unicode="&#xe6;" horiz-adv-x="581" 
d="M276 339l-1 155l-49 2l-18 -155zM456 172l104 2l5 -187l-290 -2l1 191h-42h-46q-4 -21 -10 -86.5t-6 -80.5v-13h-27q-1 0 -37 -1t-58 -1q-30 0 -34 2q-2 2 -2 6v4l87 639h467l-1 -145l-114 -12l-1 -91l92 7v-146l-45 -1l-46 -1q-1 0 -1 -13q0 -24 1 -37z" />
    <glyph glyph-name="ccedilla" unicode="&#xe7;" horiz-adv-x="407" 
d="M179 501l2 -348l62 1l1 100l141 1v-82v-70v-19q-7 -64 -41.5 -82.5t-112.5 -18.5l-5 -21h24q31 0 39 -3q13 -7 13 -16q0 -1 -0.5 -2.5t-0.5 -2.5t-1.5 -8t-3.5 -18.5t-4 -19.5q-6 -27 -10 -40q-6 -19 -20.5 -28.5t-28.5 -11t-42 -1.5q-57 0 -57 22q0 10 5 32l4 20h60h4
l-5 -16h20l9 39h-20l-1 -6l-62 1l23 81q-50 1 -80 11.5t-44.5 33.5t-19 50t-4.5 74q0 13 0.5 42t0.5 47v279q0 79 38.5 111t139.5 32q51 0 81.5 -4t52.5 -12.5t31.5 -28t13.5 -44.5t4 -68v-107h-145q0 61 -1 100z" />
    <glyph glyph-name="egrave" unicode="&#xe8;" horiz-adv-x="352" 
d="M31 788h152l55 -111h-116zM27 -6l2 656l305 5l-1 -146l-135 -4l-1 -90h113v-148l-45 -1l-89 -1q-1 0 -1 -13q0 -55 3 -70l152 2l1 -188z" />
    <glyph glyph-name="eacute" unicode="&#xe9;" horiz-adv-x="352" 
d="M329 789l-90 -112h-117l56 112h151zM27 -6l2 656l305 5l-1 -146l-135 -4l-1 -90h113v-148l-45 -1l-89 -1q-1 0 -1 -13q0 -55 3 -70l152 2l1 -188z" />
    <glyph glyph-name="ecircumflex" unicode="&#xea;" horiz-adv-x="352" 
d="M249 779l76 -101h-123l-20 34l-21 -34h-125l82 101h131zM27 -6l2 656l305 5l-1 -146l-135 -4l-1 -90h113v-148l-45 -1l-89 -1q-1 0 -1 -13q0 -55 3 -70l152 2l1 -188z" />
    <glyph glyph-name="edieresis" unicode="&#xeb;" horiz-adv-x="352" 
d="M290 729q0 -22 -14.5 -36.5t-36.5 -14.5t-36.5 14.5t-14.5 36.5t14.5 36t36.5 14t36.5 -14t14.5 -36zM172 729q0 -22 -14.5 -36.5t-36.5 -14.5t-36 14.5t-14 36.5t14 36t36 14t36.5 -14t14.5 -36zM27 -6l2 656l305 5l-1 -146l-135 -4l-1 -90h113v-148l-45 -1l-89 -1
q-1 0 -1 -13q0 -55 3 -70l152 2l1 -188z" />
    <glyph glyph-name="igrave" unicode="&#xec;" horiz-adv-x="213" 
d="M-42 788h152l55 -111h-116zM187 1l-107 -1l-53 3v648l159 -1z" />
    <glyph glyph-name="iacute" unicode="&#xed;" horiz-adv-x="214" 
d="M256 789l-90 -112h-117l56 112h151zM187 1l-107 -1l-53 3v648l159 -1z" />
    <glyph glyph-name="icircumflex" unicode="&#xee;" horiz-adv-x="213" 
d="M175 779l76 -101h-123l-20 34l-21 -34h-125l82 101h131zM187 1l-107 -1l-53 3v648l159 -1z" />
    <glyph glyph-name="idieresis" unicode="&#xef;" horiz-adv-x="213" 
d="M217 729q0 -22 -14.5 -36.5t-36.5 -14.5t-36.5 14.5t-14.5 36.5t14.5 36t36.5 14t36.5 -14t14.5 -36zM99 729q0 -22 -14.5 -36.5t-36.5 -14.5t-36 14.5t-14 36.5t14 36t36 14t36.5 -14t14.5 -36zM187 1l-107 -1l-53 3v648l159 -1z" />
    <glyph glyph-name="eth" unicode="&#xf0;" horiz-adv-x="401" 
d="M27 294h-16v90h7h9v268q3 0 20 0.5t59.5 1.5t102.5 1h18q47 0 63 -2q19 -2 32.5 -8t23 -12.5t15.5 -21.5t9.5 -24t5 -32.5t2 -35t0.5 -41.5q0 -12 0.5 -61t0.5 -93v-82q0 -72 -2 -108q-5 -64 -29 -98.5t-76 -42.5q-18 -2 -114 -2q-126 0 -129 3q-1 146 -1 300h-1z
M171 145l66 1l-1 339h-65v-101h28v-90h-28v-149z" />
    <glyph glyph-name="ntilde" unicode="&#xf1;" horiz-adv-x="457" 
d="M362 801v-112q-37 -11 -68 -11q-25 0 -62.5 12t-57.5 12q-30 0 -77 -24v112q46 15 79 15q22 0 55 -9t55 -9q30 0 76 14zM170 -9l-140 4v89l-3 555l176 3q3 -2 11.5 -30.5t17 -60.5t11.5 -38q1 -2 7.5 -28t13 -48.5t8.5 -22.5q2 55 2 123v123h152l3 -449v-60.5t0.5 -53.5
t1 -41.5t0.5 -29.5v-10l-131 -3h-11q-12 0 -17.5 2.5t-6 4.5t-2.5 12q-1 3 -4.5 14.5t-10.5 36t-17 53.5q-1 2 -6.5 23.5t-12.5 46.5t-15.5 51.5t-15.5 43.5t-11 17q-1 0 -1 -21q0 -11 0.5 -56.5t0.5 -76.5v-173z" />
    <glyph glyph-name="ograve" unicode="&#xf2;" 
d="M53 788h152l55 -111h-116zM299 -10q-8 -1 -116 -1q-54 0 -58 1q-95 11 -100 135q0 2 -0.5 15t-0.5 34v43v203q0 10 -0.5 28.5t-0.5 26.5q0 46 2.5 72t12 53t28.5 39.5t52 20.5t83 8h10q60 0 91 -6t50 -28t23.5 -53.5t4.5 -94.5v-198v-160v-34q-11 -97 -81 -104zM168 154
l65 -1l-2 352l-66 -1z" />
    <glyph glyph-name="oacute" unicode="&#xf3;" 
d="M350 789l-90 -112h-117l56 112h151zM299 -10q-8 -1 -116 -1q-54 0 -58 1q-95 11 -100 135q0 2 -0.5 15t-0.5 34v43v203q0 10 -0.5 28.5t-0.5 26.5q0 46 2.5 72t12 53t28.5 39.5t52 20.5t83 8h10q60 0 91 -6t50 -28t23.5 -53.5t4.5 -94.5v-198v-160v-34q-11 -97 -81 -104z
M168 154l65 -1l-2 352l-66 -1z" />
    <glyph glyph-name="ocircumflex" unicode="&#xf4;" 
d="M270 779l76 -101h-123l-20 34l-21 -34h-125l82 101h131zM299 -10q-8 -1 -116 -1q-54 0 -58 1q-95 11 -100 135q0 2 -0.5 15t-0.5 34v43v203q0 10 -0.5 28.5t-0.5 26.5q0 46 2.5 72t12 53t28.5 39.5t52 20.5t83 8h10q60 0 91 -6t50 -28t23.5 -53.5t4.5 -94.5v-198v-160
v-34q-11 -97 -81 -104zM168 154l65 -1l-2 352l-66 -1z" />
    <glyph glyph-name="otilde" unicode="&#xf5;" 
d="M334 801v-112q-37 -11 -68 -11q-25 0 -62.5 12t-57.5 12q-30 0 -77 -24v112q46 15 79 15q22 0 55 -9t55 -9q30 0 76 14zM299 -10q-8 -1 -116 -1q-54 0 -58 1q-95 11 -100 135q0 2 -0.5 15t-0.5 34v43v203q0 10 -0.5 28.5t-0.5 26.5q0 46 2.5 72t12 53t28.5 39.5t52 20.5
t83 8h10q60 0 91 -6t50 -28t23.5 -53.5t4.5 -94.5v-198v-160v-34q-11 -97 -81 -104zM168 154l65 -1l-2 352l-66 -1z" />
    <glyph glyph-name="odieresis" unicode="&#xf6;" 
d="M311 729q0 -22 -14.5 -36.5t-36.5 -14.5t-36.5 14.5t-14.5 36.5t14.5 36t36.5 14t36.5 -14t14.5 -36zM193 729q0 -22 -14.5 -36.5t-36.5 -14.5t-36 14.5t-14 36.5t14 36t36 14t36.5 -14t14.5 -36zM299 -10q-8 -1 -116 -1q-54 0 -58 1q-95 11 -100 135q0 2 -0.5 15
t-0.5 34v43v203q0 10 -0.5 28.5t-0.5 26.5q0 46 2.5 72t12 53t28.5 39.5t52 20.5t83 8h10q60 0 91 -6t50 -28t23.5 -53.5t4.5 -94.5v-198v-160v-34q-11 -97 -81 -104zM168 154l65 -1l-2 352l-66 -1z" />
    <glyph glyph-name="divide" unicode="&#xf7;" horiz-adv-x="320" 
d="M111 455q0 22 15 37t37 15t37.5 -15t15.5 -37t-15.5 -38t-37.5 -16t-37 16t-15 38zM111 191q0 22 15 37.5t37 15.5t37.5 -15.5t15.5 -37.5t-15.5 -37.5t-37.5 -15.5t-37 15.5t-15 37.5zM294 379v-112h-267v112h267z" />
    <glyph glyph-name="oslash" unicode="&#xf8;" horiz-adv-x="405" 
d="M299 -10q-8 -1 -116 -1q-54 0 -58 1q-23 3 -38 10l-4 -8h-53l17 42q-20 34 -22 91q0 2 -0.5 15t-0.5 34v43v203v158q0 53 45.5 71.5t131.5 18.5h10q84 0 122 -19l3 7h47l-18 -41q15 -35 15 -129v-198v-160v-34q-11 -97 -81 -104zM231 432v73l-66 -1l2 -211l12 26z
M232 326l-52 -115l-12 -28v-29l65 -1z" />
    <glyph glyph-name="ugrave" unicode="&#xf9;" horiz-adv-x="422" 
d="M62 788h152l55 -111h-116zM167 644q3 -288 3 -483h73q1 1 1 62l-1 430l151 5l4 -548q-2 -60 -26 -88t-78 -34q-47 -5 -113 -5q-69 0 -105.5 24.5t-43.5 83.5q-1 9 -5 198q-2 202 -2 355h142z" />
    <glyph glyph-name="uacute" unicode="&#xfa;" horiz-adv-x="422" 
d="M360 789l-90 -112h-117l56 112h151zM167 644q3 -288 3 -483h73q1 1 1 62l-1 430l151 5l4 -548q-2 -60 -26 -88t-78 -34q-47 -5 -113 -5q-69 0 -105.5 24.5t-43.5 83.5q-1 9 -5 198q-2 202 -2 355h142z" />
    <glyph glyph-name="ucircumflex" unicode="&#xfb;" horiz-adv-x="422" 
d="M280 779l76 -101h-123l-20 34l-21 -34h-125l82 101h131zM167 644q3 -288 3 -483h73q1 1 1 62l-1 430l151 5l4 -548q-2 -60 -26 -88t-78 -34q-47 -5 -113 -5q-69 0 -105.5 24.5t-43.5 83.5q-1 9 -5 198q-2 202 -2 355h142z" />
    <glyph glyph-name="udieresis" unicode="&#xfc;" horiz-adv-x="422" 
d="M321 729q0 -22 -14.5 -36.5t-36.5 -14.5t-36.5 14.5t-14.5 36.5t14.5 36t36.5 14t36.5 -14t14.5 -36zM203 729q0 -22 -14.5 -36.5t-36.5 -14.5t-36 14.5t-14 36.5t14 36t36 14t36.5 -14t14.5 -36zM167 644q3 -288 3 -483h73q1 1 1 62l-1 430l151 5l4 -548q-2 -60 -26 -88
t-78 -34q-47 -5 -113 -5q-69 0 -105.5 24.5t-43.5 83.5q-1 9 -5 198q-2 202 -2 355h142z" />
    <glyph glyph-name="yacute" unicode="&#xfd;" horiz-adv-x="433" 
d="M366 789l-90 -112h-117l56 112h151zM280 649h153l-131 -421l4 -229h-171l-2 229l-131 421h167l55 -183z" />
    <glyph glyph-name="thorn" unicode="&#xfe;" horiz-adv-x="400" 
d="M170 404v-104q13 0 31.5 0.5t30.5 0.5l-1 89l-1 56q-1 1 -24 1q-33 0 -35 -2q-1 -1 -1 -41zM374 229q0 -49 -40 -67q-39 -19 -108 -19q-17 0 -33 1t-19 1v-21q0 -97 3 -128h-148v758h137v-166h96q30 0 59 -8.5t40 -20.5q13 -13 14 -59q0 -4 0.5 -10.5t0.5 -20.5
q0 -37 -0.5 -95t-1.5 -102v-43z" />
    <glyph glyph-name="ydieresis" unicode="&#xff;" horiz-adv-x="433" 
d="M327 729q0 -22 -14.5 -36.5t-36.5 -14.5t-36.5 14.5t-14.5 36.5t14.5 36t36.5 14t36.5 -14t14.5 -36zM209 729q0 -22 -14.5 -36.5t-36.5 -14.5t-36 14.5t-14 36.5t14 36t36 14t36.5 -14t14.5 -36zM280 649h153l-131 -421l4 -229h-171l-2 229l-131 421h167l55 -183z" />
    <glyph glyph-name="dotlessi" unicode="&#x131;" horiz-adv-x="214" 
d="M187 1l-107 -1l-53 3v648l159 -1z" />
    <glyph glyph-name="OE" unicode="&#x152;" horiz-adv-x="586" 
d="M252 174l-4 326h-72v-327zM281 658q36 0 141.5 -1t137.5 -1q1 -7 1 -78v-73q-20 0 -81.5 1.5t-80.5 1.5v-33q0 -8 -0.5 -20.5t-0.5 -16.5q0 -7 1 -8l132 -5q1 -50 1 -152h-133v-73l155 -3l1 -196l-222 1q-42 -17 -128 -17q-27 0 -48.5 1.5t-39 6.5t-30.5 9.5t-23 16
t-16.5 19.5t-11 26.5t-6.5 31t-3.5 39.5t-1.5 44.5v53.5v11v277q0 79 37 111t139 32h1q46 0 79 -6z" />
    <glyph glyph-name="oe" unicode="&#x153;" horiz-adv-x="555" 
d="M319 -5q-20 -7 -61 -7q-8 0 -33 0.5t-42 0.5q-54 0 -58 1q-95 11 -100 135q0 2 -0.5 15t-0.5 34v43v361q0 53 45.5 71.5t131.5 18.5h10q79 0 117 -16l212 3l-1 -146l-163 -4v-90h140v-148q-62 -2 -140 -2q-1 -1 -1 -2t0.5 -4.5t0.5 -6.5q0 -7 -0.5 -26.5t-0.5 -27.5
q0 -5 1 -10v-6l160 2l1 -188zM233 212l-2 293l-66 -1l3 -350l64 -1z" />
    <glyph glyph-name="Scaron" unicode="&#x160;" horiz-adv-x="424" 
d="M273 679h-116l-91 102h125l21 -35l20 35h123zM24 146v112q72 -4 139 -4q1 0 4 -0.5t5 -0.5v-74v-21h59l1 112q-16 3 -61 10t-76 15.5t-49 21.5q-28 20 -28 66q0 163 4 192q4 27 16.5 45.5t27 28t44 14t51.5 5.5t66 1q43 0 65.5 -1t45.5 -6.5t32 -14t17 -27t9.5 -42
t1.5 -62.5v-77q-21 0 -79 3t-68 3l1 79l-73 -2l1 -81q8 -1 42 -7.5t44.5 -8.5t37 -9t37 -14t26 -18t22.5 -25.5t10 -32.5q3 -15 3 -97q0 -98 -3 -119q-3 -29 -8.5 -49.5t-18.5 -34t-26 -20.5t-40.5 -10.5t-50 -4.5t-65.5 -1q-99 0 -132.5 32t-33.5 124z" />
    <glyph glyph-name="scaron" unicode="&#x161;" horiz-adv-x="418" 
d="M272 678h-116l-91 102h125l21 -35l20 35h123zM28 144v120q90 -5 137 -5h9l1 -85v-21l71 -3l-6 117q-14 3 -62.5 10.5t-79 16t-48.5 21.5q-27 19 -27 66q0 169 3 191q4 27 16 45.5t25 28t41 14t49 5.5t65 1q43 0 65.5 -1t45.5 -6.5t32 -14t17 -27t9.5 -42t1.5 -62.5v-67
q-21 0 -81.5 -2t-72.5 -2l1 92l-69 -5l-1 -91q83 -14 175 -41q18 -5 32 -26t18 -47q2 -10 2 -97q0 -105 -2 -119q-3 -35 -14.5 -57.5t-27 -35.5t-48 -19t-61 -7.5t-82.5 -1.5q-32 0 -54 2.5t-37 11t-23.5 18.5t-13 30.5t-5.5 40t-1 54.5z" />
    <glyph glyph-name="Ydieresis" unicode="&#x178;" horiz-adv-x="428" 
d="M324 725q0 -22 -14.5 -36.5t-36.5 -14.5t-36.5 14.5t-14.5 36.5t14.5 36t36.5 14t36.5 -14t14.5 -36zM206 725q0 -22 -14.5 -36.5t-36.5 -14.5t-36 14.5t-14 36.5t14 36t36 14t36.5 -14t14.5 -36zM250 648h170l-119 -401l4 -252q0 -2 -112 -2q-67 0 -67 3l-2 251
l-115 395h156l46 -205z" />
    <glyph glyph-name="Zcaron" unicode="&#x17d;" horiz-adv-x="381" 
d="M255 674h-116l-91 102h125l21 -35l20 35h123zM241 -7h-216l-1 164q3 16 43 99.5t78 160.5t38 78q-1 1 -39 1h-76l-38 1v154l331 -3v-155l-13 -29q-14 -28 -34 -69.5t-39.5 -84t-33 -74.5t-13.5 -38q21 0 73 0.5t53 0.5v-205z" />
    <glyph glyph-name="zcaron" unicode="&#x17e;" horiz-adv-x="374" 
d="M250 678h-116l-91 102h125l21 -35l20 35h123zM347 460l-142 -315q16 0 80 0.5t65 0.5v-150h-325l3 141l154 327l-156 1v185q50 0 160 -1t161 -1v-188z" />
    <glyph glyph-name="circumflex" unicode="&#x2c6;" horiz-adv-x="343" 
d="M246 642l76 -101h-123l-20 34l-21 -34h-125l82 101h131z" />
    <glyph glyph-name="caron" unicode="&#x2c7;" horiz-adv-x="343" 
d="M234 541h-116l-91 102h125l21 -35l20 35h123z" />
    <glyph glyph-name="tilde" unicode="&#x2dc;" horiz-adv-x="318" 
d="M292 640v-112q-37 -11 -68 -11q-25 0 -62.5 12t-57.5 12q-30 0 -77 -24v112q46 15 79 15q22 0 55 -9t55 -9q30 0 76 14z" />
    <glyph glyph-name="endash" unicode="&#x2013;" horiz-adv-x="336" 
d="M310 384v-124h-283v124h57h226z" />
    <glyph glyph-name="emdash" unicode="&#x2014;" horiz-adv-x="611" 
d="M585 384v-124h-558v124h79h479z" />
    <glyph glyph-name="quoteleft" unicode="&#x2018;" horiz-adv-x="159" 
d="M84 645v-105l47 -2l2 -128h-103l-3 235h57z" />
    <glyph glyph-name="quoteright" unicode="&#x2019;" horiz-adv-x="153" 
d="M68 410v105l-48 2l-2 128h104l3 -235h-57z" />
    <glyph glyph-name="quotesinglbase" unicode="&#x201a;" horiz-adv-x="159" 
d="M76 -105v105l-47 1l-2 129h103l3 -235h-57z" />
    <glyph glyph-name="quotedblleft" unicode="&#x201c;" horiz-adv-x="309" 
d="M233 645v-105l48 -2l2 -128h-104l-3 235h57zM84 645v-105l47 -2l2 -128h-103l-3 235h57z" />
    <glyph glyph-name="quotedblright" unicode="&#x201d;" horiz-adv-x="300" 
d="M68 412v103l-48 2l-2 128h104l3 -235zM216 410v105l-47 2l-2 128h103l3 -235h-57z" />
    <glyph glyph-name="quotedblbase" unicode="&#x201e;" horiz-adv-x="308" 
d="M76 -106v105l-47 2l-2 127h103l3 -234h-57zM224 -106v105l-47 2l-2 127h104l3 -234h-58z" />
    <glyph glyph-name="dagger" unicode="&#x2020;" horiz-adv-x="283" 
d="M205 590v-364h-123v364h-55v88h55v47h123v-47h52v-88h-52z" />
    <glyph glyph-name="daggerdbl" unicode="&#x2021;" horiz-adv-x="283" 
d="M205 590v-29h52v-88h-52v-247h-123v247h-55v88h55v29h-55v88h55v47h123v-47h52v-88h-52z" />
    <glyph glyph-name="bullet" unicode="&#x2022;" horiz-adv-x="284" 
d="M27 310q0 47 34 81.5t81 34.5t81.5 -34.5t34.5 -81.5t-34.5 -81t-81.5 -34t-81 34t-34 81z" />
    <glyph glyph-name="ellipsis" unicode="&#x2026;" horiz-adv-x="516" 
d="M496 1h-127v121h126q0 -12 0.5 -35t0.5 -35v-51zM328 1h-127v121h126q0 -12 0.5 -35t0.5 -35v-51zM160 1h-127v121h126q0 -12 0.5 -35t0.5 -35v-51z" />
    <glyph glyph-name="perthousand" unicode="&#x2030;" horiz-adv-x="768" 
d="M701 -5q-1 0 -13.5 -0.5t-28 -0.5h-25.5h-29q-26 3 -36.5 19.5t-12.5 48.5q0 1 -0.5 11.5t-1 32t-0.5 48.5v78q2 46 100 46q60 0 76.5 -13.5t16.5 -54.5q0 -6 -0.5 -21t-0.5 -24v-69q0 -43 -1 -49q-6 -48 -44 -52zM624 98h53l-1 70h-53zM474 -5q-1 0 -13 -0.5t-27.5 -0.5
h-25.5h-30q-26 3 -36.5 19.5t-12.5 48.5q0 1 -0.5 11.5t-0.5 32v48.5v78q2 46 99 46q60 0 76.5 -13.5t16.5 -54.5q0 -6 -0.5 -21t-0.5 -24v-69q0 -43 -1 -49q-6 -48 -44 -52zM397 98h54l-1 70h-54zM169 369l-27 -1h-40h-29q-46 5 -49 68v91v79q1 26 22.5 35.5t62.5 9.5
q63 0 83 -16t21 -74v-91q0 -43 -1 -49q-6 -48 -43 -52zM93 468h46l-1 80h-46zM25 0l367 649h117l-353 -649h-131z" />
    <glyph glyph-name="Euro" unicode="&#x20ac;" horiz-adv-x="462" 
d="M337 394l-14 -54h-94v-28h82l-14 -54h-67v-105l61 1v49l142 1q3 -3 3 -56q0 -54 -1 -64q-3 -27 -12 -46t-21 -30t-33.5 -16.5t-42 -7t-53.5 -1.5q-7 0 -19 0.5t-18 0.5q-55 0 -88 9.5t-49.5 32.5t-21.5 51t-5 76q0 13 0.5 42.5t0.5 46.5v16h-46v54h46v28h-46v54h46v127
q0 79 38.5 111t139.5 32q63 0 97 -5t55 -23.5t26.5 -46.5t5.5 -82l1 -55h-145v20v28l-63 1l1 -107h108z" />
    <glyph glyph-name="trademark" unicode="&#x2122;" horiz-adv-x="548" 
d="M102 312h-14l-1 163v85h-26q-34 0 -34 1v43v39h15l198 1v-92h-19h-50q-1 -98 -1 -203v-37h-68zM522 322h-4h-20h-47l-2 122l-40 -119h-31l-28 132v-131v-9q-8 -2 -60 -2q-18 0 -19 1l-2 326l105 2l24 -122l40 114q23 1 48 1h33z" />
  </font>
</defs>
</svg>
